<?xml version="1.0" encoding="utf-8"?>
<!-- Generator: Adobe Illustrator 24.1.2, SVG Export Plug-In . SVG Version: 6.00 Build 0)  -->
<svg version="1.1" id="Capa_1" xmlns="http://www.w3.org/2000/svg" xmlns:xlink="http://www.w3.org/1999/xlink" x="0px" y="0px"
	 viewBox="0 0 512 512" style="enable-background:new 0 0 512 512;" xml:space="preserve">
<g>
	<g>
		<path d="M75,75c-99.8,99.8-99.8,262.2,0,362s262.2,99.8,362,0s99.8-262.2,0-362S174.8-24.8,75,75z M409,409
			c-84.3,84.3-221.6,84.4-306,0s-84.3-221.6,0-306s221.6-84.4,306,0S493.3,324.6,409,409z"/>
	</g>
</g>
<g>
	<g>
		<path d="M310.8,170.6l-56.1,56.1l-56.1-56.1c-7.7-7.7-20.3-7.8-28,0c-7.8,7.8-7.7,20.3,0,28l56.1,56.1l-56.1,56.1
			c-7.8,7.8-7.7,20.3,0,28s20.3,7.8,28,0l56.1-56.1l56.1,56.1c7.7,7.7,20.3,7.8,28,0c7.8-7.8,7.7-20.3,0-28l-56.1-56.1l56.1-56.1
			c7.8-7.8,7.7-20.3,0-28S318.6,162.9,310.8,170.6z"/>
	</g>
</g>
</svg>
