<svg id="Layer_2" height="512" viewBox="0 0 128 128" width="512" xmlns="http://www.w3.org/2000/svg" data-name="Layer 2"><rect fill="#5e3369" height="76" rx="3" width="124.5" x="1.75" y="8.871"/><path d="m28.134 64.2-1.484-1.479a24.362 24.362 0 0 1 5.817-10.064l31.37-32.681a10.483 10.483 0 0 1 5.925-2.964l1.994-.286a2.1 2.1 0 0 1 1.78.593 2.1 2.1 0 0 1 .593 1.78l-.286 1.994a10.483 10.483 0 0 1 -2.964 5.925l-32.679 31.37a24.362 24.362 0 0 1 -10.066 5.812z" fill="#e2e9f2"/><path d="m32.467 52.657 3.343-3.483-18.2-3.082-3.8 3.8 16.348 5.571a24.344 24.344 0 0 1 2.309-2.806z" fill="#8ac9ff"/><path d="m41.681 55.045-3.481 3.343a24.344 24.344 0 0 1 -2.8 2.3l5.571 16.348 3.8-3.8z" fill="#8ac9ff"/><g fill="#c9cf4f"><path d="m37.129 31.4-1.513 1.513a1.736 1.736 0 0 0 0 2.455l2.27 2.27a1.736 1.736 0 0 0 2.455 0l3.792-3.792z"/><path d="m59.46 53.726-1.514 1.514a1.736 1.736 0 0 1 -2.455 0l-2.27-2.27a1.736 1.736 0 0 1 0-2.455l3.792-3.792z"/><path d="m64.845 42.905a1.75 1.75 0 0 1 -1.238-2.987l2.7-2.7a1.75 1.75 0 0 1 2.476 2.475l-2.7 2.7a1.745 1.745 0 0 1 -1.238.512z"/><path d="m66.833 52.055a1.75 1.75 0 0 1 -1.233-2.988l3.581-3.581a1.75 1.75 0 0 1 2.475 2.475l-3.586 3.581a1.744 1.744 0 0 1 -1.237.513z"/><path d="m49.7 27.76a1.75 1.75 0 0 1 -1.237-2.987l2.7-2.7a1.75 1.75 0 0 1 2.475 2.475l-2.7 2.7a1.744 1.744 0 0 1 -1.238.512z"/><path d="m40.551 25.772a1.75 1.75 0 0 1 -1.237-2.987l3.581-3.585a1.75 1.75 0 1 1 2.475 2.475l-3.582 3.585a1.744 1.744 0 0 1 -1.237.512z"/></g><path d="m13.333 84.871h8.167v26.091h-8.167z" fill="#e2e9f2"/><path d="m59.917 52.796h8.167v124.5h-8.167z" fill="#c9cf4f" transform="matrix(0 1 -1 0 179.046 51.046)"/><path d="m106.5 84.871h8.167v26.091h-8.167z" fill="#e2e9f2" transform="matrix(-1 0 0 -1 221.167 195.833)"/><path d="m116.5 29.129h-28.375a1.75 1.75 0 0 1 0-3.5h28.375a1.75 1.75 0 0 1 0 3.5z" fill="#472356"/><path d="m116.5 42.205h-28.375a1.75 1.75 0 0 1 0-3.5h28.375a1.75 1.75 0 0 1 0 3.5z" fill="#472356"/><path d="m116.5 55.28h-28.375a1.75 1.75 0 0 1 0-3.5h28.375a1.75 1.75 0 0 1 0 3.5z" fill="#472356"/><path d="m116.5 68.355h-28.375a1.75 1.75 0 0 1 0-3.5h28.375a1.75 1.75 0 0 1 0 3.5z" fill="#472356"/><path d="m56.605 27.51-32.372-7.032-4.754 4.753 29.443 10.283z" fill="#8ac9ff"/><path d="m63.345 34.25-8.004 7.683 10.283 29.443 4.753-4.754z" fill="#8ac9ff"/></svg>