<svg id="Layer_1" enable-background="new 0 0 24 24" height="512" viewBox="0 0 24 24" width="512" xmlns="http://www.w3.org/2000/svg" xmlns:xlink="http://www.w3.org/1999/xlink" xmlns:svg="http://www.w3.org/2000/svg"><linearGradient id="linearGradient4533" gradientTransform="matrix(0 1.329 1.329 0 -4497.972 -830.464)" gradientUnits="userSpaceOnUse" x1="625.832" x2="642.391" y1="3394.595" y2="3394.595"><stop id="stop1327" offset="0" stop-color="#ff4ae0"/><stop id="stop1329" offset="1" stop-color="#6b0082"/></linearGradient><path id="path206" d="m9.428212 5.936054c-.907682.762469-1.42835 1.879933-1.42835 3.063958 0 .55282.447597.99962.99962.99962.55282 0 1.000416-.4468 1.000416-.99962 0-.592809.260667-1.151077.715304-1.531979.461015-.38781 1.048246-.544051 1.656069-.434976.786782.137375 1.45811.809635 1.595618 1.595618.136577.776553-.16966 1.540616-.79781 1.994457-1.378927.996431-2.168765 2.453877-2.168765 3.99994v.376916c0 .55282.447464 1.000416.999487 1.000416s1.000417-.447596 1.000417-1.000416v-.376916c0-.895061.488384-1.762753 1.339602-2.378415 1.254838-.906885 1.866514-2.424781 1.597212-3.961543-.283518-1.612757-1.60824-2.937479-3.220199-3.2202-1.181104-.205663-2.380938.110272-3.288621.87314zm1.57197 12.063723c0 .552687.447861 1.000549.999884 1.000549s.999753-.447862.999753-1.000549c0-.552023-.44773-.999753-.999753-.999753s-.999884.44773-.999884.999753zm.999353 3.000187c-4.961428 0-9.00003-4.03714-9.00003-8.999765 0-4.963156 4.038602-9.00003 9.00003-9.00003 4.962359 0 9.000164 4.036874 9.000164 9.00003 0 4.962625-4.037805 8.999765-9.000164 8.999765zm0-20.000097c-6.065341 0-10.999535 4.934061-10.999535 11.000332 0 6.065608 4.934194 10.999934 10.999535 10.999934 6.066272 0 11.000465-4.934326 11.000465-10.999934 0-6.066271-4.934193-11.000332-11.000465-11.000332" fill="url(#linearGradient4533)"/></svg>